<svg xmlns="http://www.w3.org/2000/svg">
  <symbol id="icon-settings" viewBox="0 0 24 24" fill="none" stroke="currentColor" stroke-width="1.8" stroke-linecap="round" stroke-linejoin="round"><circle cx="12" cy="12" r="3"/><path d="M19.4 15a1.7 1.7 0 0 0 .3 1.9l.1.1-2.8 2.8-.1-.1a1.7 1.7 0 0 0-1.9-.3 1.7 1.7 0 0 0-1 1.6v.2h-4V21a1.7 1.7 0 0 0-1-1.6 1.7 1.7 0 0 0-1.9.3l-.1.1L4.2 17l.1-.1a1.7 1.7 0 0 0 .3-1.9A1.7 1.7 0 0 0 3 14H2.8v-4H3a1.7 1.7 0 0 0 1.6-1 1.7 1.7 0 0 0-.3-1.9L4.2 7 7 4.2l.1.1A1.7 1.7 0 0 0 9 4.6a1.7 1.7 0 0 0 1-1.6v-.2h4V3a1.7 1.7 0 0 0 1 1.6 1.7 1.7 0 0 0 1.9-.3l.1-.1L19.8 7l-.1.1a1.7 1.7 0 0 0-.3 1.9 1.7 1.7 0 0 0 1.6 1h.2v4H21a1.7 1.7 0 0 0-1.6 1Z"/></symbol>
  <symbol id="icon-guide" viewBox="0 0 24 24" fill="none" stroke="currentColor" stroke-width="1.8" stroke-linecap="round" stroke-linejoin="round"><rect x="4" y="3" width="16" height="18" rx="2"/><path d="m8 8 1.5 1.5L12 7M14.5 9H17m-9 5 1.5 1.5L12 13m2.5 2H17"/></symbol>
  <symbol id="icon-bell" viewBox="0 0 24 24" fill="none" stroke="currentColor" stroke-width="1.8" stroke-linecap="round" stroke-linejoin="round"><path d="M18 8a6 6 0 0 0-12 0c0 7-3 7-3 9h18c0-2-3-2-3-9M10 21h4"/></symbol>
  <symbol id="icon-refresh" viewBox="0 0 24 24" fill="none" stroke="currentColor" stroke-width="1.8" stroke-linecap="round" stroke-linejoin="round"><path d="M20 7v5h-5M4 17v-5h5"/><path d="M6.1 8.2A7 7 0 0 1 18.7 7M17.9 15.8A7 7 0 0 1 5.3 17"/></symbol>
  <symbol id="icon-reconnect" viewBox="0 0 24 24" fill="none" stroke="currentColor" stroke-width="1.8" stroke-linecap="round" stroke-linejoin="round"><path d="M8 3v4M4 5h8v4a4 4 0 0 1-8 0V5Zm4 8v3"/><path d="M14 15a4 4 0 0 1 6.5-1.2M21 12v3h-3M21 19h-3v3M20.5 20.2A4 4 0 0 1 14 19"/></symbol>
  <symbol id="icon-log-out" viewBox="0 0 24 24" fill="none" stroke="currentColor" stroke-width="1.8" stroke-linecap="round" stroke-linejoin="round"><path d="M10 4H5a2 2 0 0 0-2 2v12a2 2 0 0 0 2 2h5M14 8l4 4-4 4m4-4H8"/></symbol>
  <symbol id="icon-clock" viewBox="0 0 24 24" fill="none" stroke="currentColor" stroke-width="1.8" stroke-linecap="round" stroke-linejoin="round"><circle cx="12" cy="12" r="9"/><path d="M12 7v5l3 2"/></symbol>
  <symbol id="icon-chevron-down" viewBox="0 0 24 24" fill="none" stroke="currentColor" stroke-width="2" stroke-linecap="round" stroke-linejoin="round"><path d="m7 10 5 5 5-5"/></symbol>
  <symbol id="icon-chevron-up" viewBox="0 0 24 24" fill="none" stroke="currentColor" stroke-width="2" stroke-linecap="round" stroke-linejoin="round"><path d="m7 14 5-5 5 5"/></symbol>
  <symbol id="icon-alert" viewBox="0 0 24 24" fill="none" stroke="currentColor" stroke-width="1.8" stroke-linecap="round" stroke-linejoin="round"><path d="M10.3 3.8 2.7 17a2 2 0 0 0 1.7 3h15.2a2 2 0 0 0 1.7-3L13.7 3.8a2 2 0 0 0-3.4 0Z"/><path d="M12 9v4m0 3h.01"/></symbol>
  <symbol id="icon-backup-settings" viewBox="0 0 24 24" fill="none" stroke="currentColor" stroke-width="1.8" stroke-linecap="round" stroke-linejoin="round"><path d="M4 6h7m5 0h4M4 12h2m5 0h9M4 18h9m5 0h2"/><circle cx="13.5" cy="6" r="2.5"/><circle cx="8.5" cy="12" r="2.5"/><circle cx="15.5" cy="18" r="2.5"/></symbol>
  <symbol id="icon-backup-library" viewBox="0 0 24 24" fill="none" stroke="currentColor" stroke-width="1.8" stroke-linecap="round" stroke-linejoin="round"><path d="M3 7h18v13H3zM5 3h14v4M8 12h8m-8 4h5"/></symbol>
  <symbol id="icon-lock" viewBox="0 0 24 24" fill="none" stroke="currentColor" stroke-width="1.8" stroke-linecap="round" stroke-linejoin="round"><rect x="4" y="10" width="16" height="11" rx="2"/><path d="M8 10V7a4 4 0 0 1 8 0v3m-4 4v3"/></symbol>
  <symbol id="icon-lock-open" viewBox="0 0 24 24" fill="none" stroke="currentColor" stroke-width="1.8" stroke-linecap="round" stroke-linejoin="round"><rect x="4" y="10" width="16" height="11" rx="2"/><path d="M8 10V7a4 4 0 0 1 7.5-2M12 14v3"/></symbol>
  <symbol id="icon-restore" viewBox="0 0 24 24" fill="none" stroke="currentColor" stroke-width="1.8" stroke-linecap="round" stroke-linejoin="round"><path d="M3 12a9 9 0 1 0 3-6.7L3 8"/><path d="M3 3v5h5m4-1v5l3 2"/></symbol>
  <symbol id="icon-key" viewBox="0 0 24 24" fill="none" stroke="currentColor" stroke-width="1.8" stroke-linecap="round" stroke-linejoin="round"><circle cx="8" cy="15" r="4"/><path d="m11 12 9-9m-4 4 2 2m-5 1 2 2"/></symbol>
  <symbol id="icon-folder-check" viewBox="0 0 24 24" fill="none" stroke="currentColor" stroke-width="1.8" stroke-linecap="round" stroke-linejoin="round"><path d="M3 6a2 2 0 0 1 2-2h5l2 2h7a2 2 0 0 1 2 2v10a2 2 0 0 1-2 2H5a2 2 0 0 1-2-2Z"/><path d="m8 13 2.2 2.2L16 10"/></symbol>
  <symbol id="icon-network-check" viewBox="0 0 24 24" fill="none" stroke="currentColor" stroke-width="1.8" stroke-linecap="round" stroke-linejoin="round"><path d="M3.5 8.5a13 13 0 0 1 17 0M6.5 12a8.4 8.4 0 0 1 7-1.8M9.5 15.2a3.7 3.7 0 0 1 2.5-.9"/><path d="m14 16 2.2 2.2L21 13.5"/></symbol>
  <symbol id="icon-search" viewBox="0 0 24 24" fill="none" stroke="currentColor" stroke-width="1.8" stroke-linecap="round" stroke-linejoin="round"><circle cx="10.5" cy="10.5" r="6.5"/><path d="m15.5 15.5 5 5"/></symbol>
  <symbol id="icon-info" viewBox="0 0 24 24" fill="none" stroke="currentColor" stroke-width="1.8" stroke-linecap="round" stroke-linejoin="round"><circle cx="12" cy="12" r="9"/><path d="M12 11v5m0-8h.01"/></symbol>
  <symbol id="icon-help" viewBox="0 0 24 24" fill="none" stroke="currentColor" stroke-width="1.8" stroke-linecap="round" stroke-linejoin="round"><circle cx="12" cy="12" r="9"/><path d="M9.8 9a2.4 2.4 0 1 1 3.3 2.2c-.8.4-1.1.9-1.1 1.8m0 3h.01"/></symbol>
  <symbol id="icon-pair" viewBox="0 0 24 24" fill="none" stroke="currentColor" stroke-width="1.8" stroke-linecap="round" stroke-linejoin="round"><path d="M10.5 13.5a4.5 4.5 0 0 0 6.4.1l2-2a4.5 4.5 0 0 0-6.4-6.4l-1.1 1.1"/><path d="M13.5 10.5a4.5 4.5 0 0 0-6.4-.1l-2 2a4.5 4.5 0 0 0 6.4 6.4l1.1-1.1"/></symbol>
  <symbol id="icon-save" viewBox="0 0 24 24" fill="none" stroke="currentColor" stroke-width="1.8" stroke-linecap="round" stroke-linejoin="round"><path d="M4 3h13l3 3v15H4z"/><path d="M8 3v6h8V3M8 21v-7h8v7"/></symbol>
  <symbol id="icon-download" viewBox="0 0 24 24" fill="none" stroke="currentColor" stroke-width="1.8" stroke-linecap="round" stroke-linejoin="round"><path d="M12 3v12m-4-4 4 4 4-4M4 20h16"/></symbol>
  <symbol id="icon-unpack" viewBox="0 0 24 24" fill="none" stroke="currentColor" stroke-width="1.8" stroke-linecap="round" stroke-linejoin="round"><path d="m3 8 9 4 9-4-9-4-9 4Zm0 0v9l9 4 9-4V8M12 12v9"/><path d="M8 6h8"/></symbol>
  <symbol id="icon-trash" viewBox="0 0 24 24" fill="none" stroke="currentColor" stroke-width="1.8" stroke-linecap="round" stroke-linejoin="round"><path d="M4 7h16M9 7V4h6v3m3 0-1 14H7L6 7m4 4v6m4-6v6"/></symbol>
  <symbol id="icon-power" viewBox="0 0 24 24" fill="none" stroke="currentColor" stroke-width="1.8" stroke-linecap="round" stroke-linejoin="round"><path d="M12 3v9M7 5.8a8 8 0 1 0 10 0"/></symbol>
  <symbol id="icon-locate" viewBox="0 0 24 24" fill="none" stroke="currentColor" stroke-width="1.8" stroke-linecap="round" stroke-linejoin="round"><circle cx="12" cy="12" r="7"/><circle cx="12" cy="12" r="2"/><path d="M12 2v3m0 14v3M2 12h3m14 0h3"/></symbol>
  <symbol id="icon-usb" viewBox="0 0 24 24" fill="none" stroke="currentColor" stroke-width="1.8" stroke-linecap="round" stroke-linejoin="round"><path d="M12 3v12m0-12-2.5 2.5M12 3l2.5 2.5M12 10h4a2 2 0 0 1 2 2v2m-6 1H8a2 2 0 0 0-2 2v1"/><circle cx="6" cy="20" r="1.5"/><rect x="16.5" y="14" width="3" height="3" rx=".5"/></symbol>
  <symbol id="icon-shield" viewBox="0 0 24 24" fill="none" stroke="currentColor" stroke-width="1.8" stroke-linecap="round" stroke-linejoin="round"><path d="M12 3 4.5 6v5.5c0 4.8 3.2 8 7.5 9.5 4.3-1.5 7.5-4.7 7.5-9.5V6Z"/><path d="m9 12 2 2 4-4"/></symbol>
  <symbol id="icon-shield-unlock" viewBox="0 0 24 24" fill="none" stroke="currentColor" stroke-width="1.8" stroke-linecap="round" stroke-linejoin="round"><path d="M12 3 4.5 6v5.5c0 4.8 3.2 8 7.5 9.5 4.3-1.5 7.5-4.7 7.5-9.5V6Z"/><rect x="9" y="11" width="6" height="5" rx="1"/><path d="M10.5 11V9.8a2 2 0 0 1 3.7-1"/></symbol>
  <symbol id="icon-cable" viewBox="0 0 24 24" fill="none" stroke="currentColor" stroke-width="1.8" stroke-linecap="round" stroke-linejoin="round"><path d="M8 3v4m-3 0h6v4a3 3 0 0 1-6 0V7Zm3 7v2a4 4 0 0 0 4 4h2"/><rect x="14" y="17" width="5" height="4" rx="1"/></symbol>
  <symbol id="icon-phone" viewBox="0 0 24 24" fill="none" stroke="currentColor" stroke-width="1.8" stroke-linecap="round" stroke-linejoin="round"><rect x="6" y="2" width="12" height="20" rx="3"/><path d="M10 5h4m-3 14h2"/></symbol>
  <symbol id="icon-trust" viewBox="0 0 24 24" fill="none" stroke="currentColor" stroke-width="1.8" stroke-linecap="round" stroke-linejoin="round"><path d="M8 12V7a1.5 1.5 0 0 1 3 0v4-6a1.5 1.5 0 0 1 3 0v6-4a1.5 1.5 0 0 1 3 0v5-2a1.5 1.5 0 0 1 3 0v4c0 4-3 7-7 7h-1c-2.5 0-4.5-1.3-6-3l-3-3a1.7 1.7 0 0 1 2.4-2.4L8 14"/></symbol>
  <symbol id="icon-backup" viewBox="0 0 24 24" fill="none" stroke="currentColor" stroke-width="1.8" stroke-linecap="round" stroke-linejoin="round"><path d="M5 16a4 4 0 0 1 .8-7.9A6.5 6.5 0 0 1 18.5 10 3.5 3.5 0 0 1 18 17H7"/><path d="m9 13 3-3 3 3m-3-3v9"/></symbol>
  <symbol id="icon-check" viewBox="0 0 24 24" fill="none" stroke="currentColor" stroke-width="2" stroke-linecap="round" stroke-linejoin="round"><path d="m5 12 4 4L19 6"/></symbol>
  <symbol id="icon-check-circle" viewBox="0 0 24 24" fill="none" stroke="currentColor" stroke-width="1.8" stroke-linecap="round" stroke-linejoin="round"><circle cx="12" cy="12" r="9"/><path d="m8 12 2.5 2.5L16 9"/></symbol>
  <symbol id="icon-x-circle" viewBox="0 0 24 24" fill="none" stroke="currentColor" stroke-width="1.8" stroke-linecap="round" stroke-linejoin="round"><circle cx="12" cy="12" r="9"/><path d="m9 9 6 6m0-6-6 6"/></symbol>
  <symbol id="icon-loader" viewBox="0 0 24 24" fill="none" stroke="currentColor" stroke-width="2" stroke-linecap="round"><path d="M21 12a9 9 0 0 1-9 9M3 12a9 9 0 0 1 9-9"/></symbol>
  <symbol id="icon-wifi" viewBox="0 0 24 24" fill="none" stroke="currentColor" stroke-width="1.8" stroke-linecap="round" stroke-linejoin="round"><path d="M3 8a14 14 0 0 1 18 0M6 12a9 9 0 0 1 12 0m-9 4a4.5 4.5 0 0 1 6 0"/><circle cx="12" cy="20" r="1" fill="currentColor" stroke="none"/></symbol>
  <symbol id="icon-send" viewBox="0 0 24 24" fill="none" stroke="currentColor" stroke-width="1.8" stroke-linecap="round" stroke-linejoin="round"><path d="m21 3-7 18-4-8-8-4Z"/><path d="m10 13 11-10"/></symbol>
  <symbol id="icon-arrow-left" viewBox="0 0 24 24" fill="none" stroke="currentColor" stroke-width="1.8" stroke-linecap="round" stroke-linejoin="round"><path d="m15 18-6-6 6-6"/></symbol>
  <symbol id="icon-telegram" viewBox="0 0 24 24" fill="none" stroke="currentColor" stroke-width="1.8" stroke-linecap="round" stroke-linejoin="round"><path d="m21 4-3 16-6-4-3 3-1-5-5-2Z"/><path d="m8 14 10-7-6 9"/></symbol>
  <symbol id="icon-mail" viewBox="0 0 24 24" fill="none" stroke="currentColor" stroke-width="1.8" stroke-linecap="round" stroke-linejoin="round"><rect x="3" y="5" width="18" height="14" rx="2"/><path d="m4 7 8 6 8-6"/></symbol>
  <symbol id="icon-message" viewBox="0 0 24 24" fill="none" stroke="currentColor" stroke-width="1.8" stroke-linecap="round" stroke-linejoin="round"><path d="M4 4h16v13H8l-4 4Z"/><path d="M8 9h8m-8 4h5"/></symbol>
  <symbol id="icon-webhook" viewBox="0 0 24 24" fill="none" stroke="currentColor" stroke-width="1.8" stroke-linecap="round" stroke-linejoin="round"><path d="M9 8a4 4 0 1 1 6 3.5M15 16a4 4 0 1 1-6-3.5M8 12H4m16 0h-4"/><circle cx="12" cy="12" r="2"/></symbol>
  <symbol id="icon-play" viewBox="0 0 24 24" fill="none" stroke="currentColor" stroke-width="1.8" stroke-linecap="round" stroke-linejoin="round"><circle cx="12" cy="12" r="9"/><path d="m10 8 6 4-6 4Z"/></symbol>
  <symbol id="icon-plus" viewBox="0 0 24 24" fill="none" stroke="currentColor" stroke-width="2" stroke-linecap="round"><path d="M12 5v14M5 12h14"/></symbol>
  <symbol id="icon-device-remove" viewBox="0 0 24 24" fill="none" stroke="currentColor" stroke-width="1.8" stroke-linecap="round" stroke-linejoin="round"><rect x="5" y="2" width="10" height="20" rx="2.5"/><path d="M8.5 5h3M9 19h2"/><circle cx="18" cy="15" r="4"/><path d="M16.5 13.5l3 3m0-3-3 3"/></symbol>
  <symbol id="icon-archive" viewBox="0 0 24 24" fill="none" stroke="currentColor" stroke-width="1.8" stroke-linecap="round" stroke-linejoin="round"><rect x="3" y="4" width="18" height="5" rx="1.5"/><path d="M5 9v11h14V9M9 14h6"/></symbol>
  <symbol id="icon-undo" viewBox="0 0 24 24" fill="none" stroke="currentColor" stroke-width="1.8" stroke-linecap="round" stroke-linejoin="round"><path d="m9 7-5 5 5 5"/><path d="M5 12h8a6 6 0 0 1 6 6"/></symbol>
  <symbol id="icon-pause-circle" viewBox="0 0 24 24" fill="none" stroke="currentColor" stroke-width="1.8" stroke-linecap="round" stroke-linejoin="round"><circle cx="12" cy="12" r="9"/><path d="M9.5 9v6m5-6v6"/></symbol>
  <symbol id="icon-eye-off" viewBox="0 0 24 24" fill="none" stroke="currentColor" stroke-width="1.8" stroke-linecap="round" stroke-linejoin="round"><path d="M3 3l18 18M10.6 10.6a2 2 0 0 0 2.8 2.8M9.9 4.2A10.7 10.7 0 0 1 12 4c5.5 0 9 5 9 5a15.4 15.4 0 0 1-2.1 2.6M6.2 6.2C4.3 7.4 3 9 3 9s3.5 5 9 5c1 0 1.9-.2 2.7-.4"/></symbol>
</svg>
